<svg width="80" height="80" viewBox="0 0 80 80" fill="none" xmlns="http://www.w3.org/2000/svg">
<g clip-path="url(#clip0_4491_32616)">
<path d="M6.22266 54.1058V26.1343H12.9367L18.9181 34.6963L24.9323 26.1343H31.6901V54.1058H24.8995V37.1676L18.9509 44.8768L13.0461 37.1348V54.1058H6.22266Z" fill="white"/>
<path d="M55.4732 25.9922H49.5902C47.2064 25.9922 38.8849 25.9922 35.2108 35.1666C33.2862 39.967 32.3458 49.1524 37.7586 58.0862L43.3792 53.9856C43.3792 53.9856 41.1484 50.8036 40.2299 44.7128H48.6498L48.7154 53.9856H56.2824V32.8375H48.781V38.7751L41.6296 38.7095C41.6296 38.7095 42.8324 31.7112 49.9948 31.9189H57.1244L55.4623 25.9922H55.4732Z" fill="white"/>
<path d="M59.8359 26.1997H66.5828V48.1133H75.9759L74.4341 54.051H59.8359V26.1997Z" fill="white"/>
</g>
<defs>
<clipPath id="clip0_4491_32616">
<rect width="80" height="80" fill="white"/>
</clipPath>
</defs>
</svg>

