<svg width="287" height="48" viewBox="0 0 287 48" fill="none" xmlns="http://www.w3.org/2000/svg">
<g clip-path="url(#clip0_4491_32360)">
<path d="M0 37.7814V0.0229492H9.13638L17.2576 11.5704L25.425 0.0229492H34.6075V37.7814H25.3788V14.9156L17.3038 25.3175L9.27481 14.8697V37.7814H0Z" fill="white"/>
<path d="M36.8672 9.2334H46.961L51.2408 22.7398L55.463 9.2334H64.6455L51.9099 48H42.5313L47.3879 35.8224L36.8672 9.2334Z" fill="white"/>
<path d="M95.6558 0H87.65C84.4084 0 73.1148 0 68.1083 12.3838C65.4896 18.8678 64.2092 31.263 71.569 43.3146L79.2057 37.7814C79.2057 37.7814 76.1834 33.4854 74.9259 25.2716H86.3695L86.4618 37.7814H96.7518V9.23341H86.5656V17.2525L76.8524 17.1609C76.8524 17.1609 78.4905 7.70979 88.2152 7.99618H97.9053L95.6443 0H95.6558Z" fill="white"/>
<path d="M101.469 9.23341V37.6783H110.697V16.1069H113.777C113.777 16.1069 116.488 16.1757 116.488 18.6845V37.6783H125.786V16.8974C125.786 15.2936 125.428 9.22196 118.426 9.23341C112.082 9.30215 101.457 9.23341 101.457 9.23341H101.469Z" fill="white"/>
<path d="M139.699 0H130.332V6.94224H139.699V0Z" fill="white"/>
<path d="M139.699 9.2334H130.332V37.6783H139.699V9.2334Z" fill="white"/>
<path d="M246.762 0H237.395V6.94224H246.762V0Z" fill="white"/>
<path d="M246.762 9.2334H237.395V37.6439H246.762V9.2334Z" fill="white"/>
<path d="M144.312 37.6898V9.4511L173.729 9.23344C173.729 9.23344 181.008 8.80957 181.008 16.7485V37.5867L171.918 37.6554L172.056 19.6124C172.056 19.6124 172.252 16.0382 169.968 16.0382H166.15V37.6554H159.159V16.1069H152.307L152.445 37.6783H144.301L144.312 37.6898Z" fill="white"/>
<path d="M213.32 0.0688477H222.468V29.6364H235.238L233.139 37.6555H213.32V0.0688477Z" fill="white"/>
<path d="M267.297 15.4997L265.232 8.9126H259.221C255.715 8.9126 243.821 10.0353 253.131 22.8544L257.445 28.1699C257.445 28.1699 258.46 30.5298 255.576 30.5985C252.692 30.6672 250.466 30.5985 250.466 30.5985L252.831 37.6897C252.831 37.6897 258.529 37.6897 260.04 37.6897C263.213 37.6897 271.646 36.3035 267.608 28.2386L261.263 18.7188C261.263 18.7188 258.599 15.5455 262.855 15.5684C264.874 15.5684 267.297 15.4997 267.297 15.4997Z" fill="white"/>
<path d="M269.984 8.91257H273.157V4.52498L281.52 2.03906V8.91257H285.846V15.7861H281.428V28.6739C281.428 28.6739 281.232 30.587 282.674 30.587H287L284.496 37.7011H279.109C279.109 37.7011 272.96 37.0825 273.145 30.587C273.33 24.0916 273.341 15.8892 273.341 15.8892L269.973 15.6944V8.91257H269.984Z" fill="white"/>
<path d="M208.845 16.7828C208.845 16.7828 210.217 7.93889 199.974 7.50357C193.813 7.24008 190.076 10.0009 190.076 10.0009C190.076 10.0009 185.023 12.842 184.423 19.8301C183.893 25.9131 188.576 37.1513 199.108 37.6783H206.03L208.845 30.736L199.178 30.8048C199.178 30.8048 208.845 23.8625 208.845 16.7713V16.7828ZM196.351 22.8544C193.375 24.8935 191.691 20.9871 194.863 16.7141C194.863 16.7141 196.063 14.6864 200.054 15.7861C202.65 16.4964 199.639 20.6091 196.351 22.8659V22.8544Z" fill="white"/>
</g>
<defs>
<clipPath id="clip0_4491_32360">
<rect width="287" height="48" fill="white"/>
</clipPath>
</defs>
</svg>
